<svg width="11" height="10" viewBox="0 0 11 10" fill="none" xmlns="http://www.w3.org/2000/svg">
<path d="M10.8118 0.707293C10.7495 0.989627 10.6835 1.27563 10.6248 1.55796C10.1628 3.71763 9.70082 5.88096 9.24248 8.04063C9.20948 8.19829 9.18015 8.35963 9.13982 8.51363C9.00415 9.02696 8.62648 9.15896 8.19748 8.84363C7.46048 8.30463 6.71982 7.76196 5.98282 7.22296C5.76648 7.06529 5.76648 7.06529 5.57582 7.24496C5.21648 7.58596 4.85715 7.93063 4.50148 8.27163C4.38415 8.38529 4.25215 8.45129 4.06882 8.44763C4.07982 8.29729 4.08715 8.14696 4.09815 7.99663C4.14582 7.33663 4.18982 6.67663 4.24115 6.01663C4.24482 5.96529 4.27782 5.90296 4.31815 5.86996C5.81048 4.52796 7.30282 3.18963 8.79515 1.84763C8.80982 1.83663 8.82448 1.82563 8.83548 1.81096C8.87948 1.76329 8.96015 1.71563 8.90515 1.64963C8.87582 1.61296 8.78415 1.60929 8.72548 1.62029C8.65582 1.63496 8.58615 1.67163 8.52748 1.71196C6.67582 2.86696 4.82415 4.02563 2.97248 5.18796C2.88448 5.24296 2.81115 5.25396 2.71215 5.22463C1.94582 4.98263 1.17582 4.74429 0.409484 4.50229C0.306817 4.46929 0.20415 4.42163 0.119817 4.35929C-0.0268496 4.25296 -0.0415163 4.10263 0.0904837 3.98163C0.19315 3.88629 0.317817 3.79829 0.449817 3.74696C1.17215 3.46096 1.89815 3.18596 2.62415 2.90729C5.10282 1.95763 7.58515 1.00796 10.0675 0.0619601C10.1372 0.0362935 10.2141 0.0106268 10.2911 0.00329346C10.5625 -0.0223732 10.7348 0.102293 10.8045 0.366293C10.8081 0.384627 10.8191 0.406627 10.8265 0.42496C10.8118 0.52396 10.8118 0.615627 10.8118 0.707293Z" fill="white"/>
</svg>
