<svg width="22" height="22" viewBox="0 0 22 22" fill="none" xmlns="http://www.w3.org/2000/svg">
<path d="M9.16667 20.1666H12.8333C17.4167 20.1666 19.25 18.3333 19.25 13.75V8.24998C19.25 3.66665 17.4167 1.83331 12.8333 1.83331H9.16667C4.58333 1.83331 2.75 3.66665 2.75 8.24998V13.75C2.75 18.3333 4.58333 20.1666 9.16667 20.1666Z" stroke="white" stroke-width="1.5" stroke-linecap="round" stroke-linejoin="round"/>
<path d="M15.125 6.9483V7.86497C15.125 8.61664 14.5108 9.23997 13.75 9.23997H8.25C7.49833 9.23997 6.875 8.6258 6.875 7.86497V6.9483C6.875 6.19664 7.48917 5.5733 8.25 5.5733H13.75C14.5108 5.5733 15.125 6.18747 15.125 6.9483Z" stroke="white" stroke-width="1.5" stroke-linecap="round" stroke-linejoin="round"/>
<path d="M7.45799 12.8333H7.46899M10.9954 12.8333H11.0064M14.5328 12.8333H14.5438M7.45799 16.0416H7.46899M10.9954 16.0416H11.0064M14.5328 16.0416H14.5438" stroke="white" stroke-width="2" stroke-linecap="round" stroke-linejoin="round"/>
</svg>
