<svg width="13" height="7" viewBox="0 0 13 7" fill="none" xmlns="http://www.w3.org/2000/svg">
<path d="M4.28101 0.448536C4.46219 0.15355 4.70275 0.0289896 4.97884 0.0212649C5.66145 0.00147048 6.34609 -0.0130133 7.02717 0.0178854C7.45044 0.0371971 7.61183 0.245763 7.61234 0.662412C7.61335 1.20169 7.59001 1.74049 7.58595 2.27977C7.58392 2.5202 7.57681 2.76594 7.62299 3.00009C7.64938 3.13382 7.75241 3.29411 7.87117 3.35687C7.94425 3.3955 8.1569 3.30715 8.22897 3.2188C8.57966 2.78911 8.93391 2.35701 9.22979 1.89305C9.48659 1.4904 9.67691 1.04768 9.87636 0.614133C9.98091 0.386738 10.12 0.28149 10.3935 0.285352C11.0782 0.294525 11.7633 0.279559 12.4479 0.26604C12.9443 0.256385 13.1321 0.469779 12.9006 0.892221C12.6134 1.41653 12.2612 1.91043 11.9145 2.40288C11.6466 2.78332 11.3334 3.13382 11.0589 3.5104C10.7802 3.89229 10.8046 4.06899 11.1391 4.40067C11.6131 4.87043 12.1018 5.32763 12.5586 5.81235C12.7281 5.99243 12.8565 6.22273 12.9468 6.4506C13.0559 6.72531 12.9022 6.93774 12.59 6.95126C11.8892 6.98168 11.1863 7.01064 10.4854 6.99423C10.0936 6.98505 9.77029 6.76394 9.49928 6.49744C9.17599 6.17976 8.87808 5.83746 8.53703 5.53861C8.1904 5.23493 7.90669 5.30301 7.73871 5.72304C7.65395 5.93547 7.62655 6.17493 7.6098 6.40474C7.57833 6.83973 7.45957 6.95174 7.00687 6.96671C6.11111 6.99664 5.24123 6.9474 4.43275 6.50226C3.60246 6.04554 2.94776 5.4295 2.38595 4.69759C1.4506 3.47757 0.710131 2.1552 0.0691393 0.778283C-0.0856528 0.445156 0.0163577 0.294525 0.406637 0.284869C0.990279 0.270386 1.57392 0.264592 2.15706 0.259764C2.45751 0.25735 2.65036 0.393497 2.78587 0.658067C3.14773 1.36487 3.5243 2.06492 3.91458 2.75773C4.01608 2.93781 4.17494 3.09568 4.33379 3.23714C4.65505 3.52344 4.95346 3.44764 5.00929 3.03582C5.08034 2.51295 5.07578 1.98043 5.10369 1.45226C5.10369 1.44454 5.10064 1.43633 5.09963 1.4286C5.057 0.944846 4.95448 0.503091 4.2805 0.448536H4.28101Z" fill="white"/>
</svg>
