<svg width="12" height="7" viewBox="0 0 12 7" fill="none" xmlns="http://www.w3.org/2000/svg">
<path d="M0 0.00567917C1.27114 0.00567917 2.52303 -0.0109375 3.77445 0.0126757C4.40274 0.0244823 4.98642 0.191961 5.43346 0.657228C5.96971 1.21476 6.08429 2.63855 5.03761 3.10732C5.01131 3.11912 4.99159 3.14361 4.96576 3.1646C6.05048 3.61281 6.16271 4.4935 6.02747 5.17959C5.85654 6.04716 5.12776 6.70877 4.13086 6.76299C2.7597 6.83733 1.38337 6.82246 0 6.84563L0 0.00567917ZM1.47822 5.66541C2.25537 5.64136 3.02735 5.64705 3.79276 5.58233C4.26187 5.54254 4.50135 5.17435 4.49853 4.66928C4.49619 4.22238 4.27126 3.91629 3.77961 3.87431C3.02219 3.80959 2.25725 3.81834 1.47822 3.7956V5.66585V5.66541ZM1.47775 2.65867C2.21734 2.65867 2.94236 2.67834 3.66457 2.64861C3.94209 2.63724 4.2027 2.50693 4.30413 2.21264C4.48538 1.68703 4.22994 1.27205 3.64344 1.23182C3.0142 1.18853 2.38075 1.19683 1.74917 1.18284C1.65901 1.18109 1.56885 1.18284 1.47728 1.18284V2.65867H1.47775Z" fill="white"/>
<path d="M11.9943 4.67628H8.03815C7.93673 5.26793 8.43025 5.8377 9.08906 5.90504C9.62344 5.9597 10.1071 5.89368 10.417 5.41398C10.4396 5.379 10.5044 5.34839 10.5499 5.34795C10.9951 5.34314 11.4402 5.34489 11.9507 5.34489C11.8633 5.54079 11.8121 5.71439 11.7154 5.86219C11.2327 6.60338 10.4884 6.93353 9.58775 6.99125C8.89137 7.03585 8.23772 6.9003 7.64277 6.5461C7.09853 6.22251 6.77453 5.76468 6.64446 5.17916C6.50734 4.56259 6.51203 3.94908 6.69658 3.34301C6.99664 2.36 7.90714 1.70102 9.00642 1.65904C10.4151 1.60569 11.3177 2.0679 11.7727 3.07846C11.999 3.58133 12.0136 4.11 11.9948 4.67541L11.9943 4.67628ZM10.4823 3.79472C10.5081 3.17991 9.98361 2.72863 9.26422 2.73694C8.56784 2.74481 8.03956 3.21095 8.07243 3.79472H10.4823Z" fill="white"/>
<path d="M7.67896 1.15835V0.327515H10.8214V1.15835H7.67896Z" fill="white"/>
</svg>
