<svg width="22" height="22" viewBox="0 0 22 22" fill="none" xmlns="http://www.w3.org/2000/svg">
<path d="M19.855 9.57L18.9567 13.4017C18.1867 16.7108 16.665 18.0492 13.805 17.7742C13.3467 17.7375 12.8517 17.655 12.32 17.5267L10.78 17.16C6.95752 16.2525 5.77502 14.3642 6.67336 10.5325L7.57169 6.69166C7.75502 5.9125 7.97502 5.23416 8.25002 4.675C9.32252 2.45666 11.1467 1.86083 14.2084 2.585L15.7392 2.9425C19.58 3.84083 20.7534 5.73833 19.855 9.57Z" stroke="white" stroke-width="1.5" stroke-linecap="round" stroke-linejoin="round"/>
<path d="M11.5867 7.81917L16.0325 8.94667M10.6883 11.3667L13.3467 12.045M13.805 17.7742C13.2367 18.1592 12.5217 18.48 11.6508 18.7642L10.2025 19.2408C6.56334 20.4142 4.64751 19.4333 3.46501 15.7942L2.29167 12.1733C1.11834 8.53417 2.09001 6.60917 5.72917 5.43584L7.17751 4.95917C7.55334 4.84 7.91084 4.73917 8.25001 4.675C7.97501 5.23417 7.75501 5.9125 7.57167 6.69167L6.67334 10.5325C5.77501 14.3642 6.95751 16.2525 10.78 17.16L12.32 17.5267C12.8517 17.655 13.3467 17.7375 13.805 17.7742Z" stroke="white" stroke-width="1.5" stroke-linecap="round" stroke-linejoin="round"/>
</svg>
