<svg width="614" height="468" viewBox="0 0 614 468" fill="none" xmlns="http://www.w3.org/2000/svg">
<path fill-rule="evenodd" clip-rule="evenodd" d="M92.7172 241L0 187.063L68.3379 67.937L161.109 121.781L161.161 14H297.839L297.891 121.781L390.661 67.937L459 187.063L366.282 241L459 294.937L390.661 414.063L297.891 360.22L297.839 468H161.161L161.109 360.22L68.3379 414.063L0 294.937L92.7172 241Z" fill="#F8F8F8"/>
<path fill-rule="evenodd" clip-rule="evenodd" d="M401.198 211.922L348.813 225.779L330.677 158.819L383.048 144.91L344.571 106.395L393.395 57.5708L431.91 96.0478L445.818 43.6768L512.779 61.8126L498.922 114.198L551.308 100.342L569.443 167.302L517.072 181.211L555.549 219.725L506.725 268.549L468.211 230.072L454.302 282.444L387.342 264.308L401.198 211.922Z" fill="#FF811C"/>
</svg>
