<svg width="1883" height="290" viewBox="0 0 1883 290" fill="none" xmlns="http://www.w3.org/2000/svg">
<path d="M20.1 90.9C25.5 82.9 32.3 77.1 40.5 73.5C48.9 69.7 57.9 67.9 67.5 68.1C77.5 68.3 86.4 70.9 94.2 75.9C102 80.7 107.1 87.9 109.5 97.5C111.3 92.3 113.9 87.8 117.3 84C120.9 80.2 124.9 77.1 129.3 74.7C133.9 72.3 138.7 70.6 143.7 69.6C148.9 68.4 154.1 67.9 159.3 68.1C176.7 68.5 189.3 73.7 197.1 83.7C205.1 93.5 209.1 106.8 209.1 123.6V228H189.3V136.2C189.3 130.4 189 124.5 188.4 118.5C187.8 112.5 186.4 107.1 184.2 102.3C182.2 97.3 179 93.3 174.6 90.3C170.2 87.1 164.3 85.4 156.9 85.2C150.9 84.8 145.6 85.8 141 88.2C136.4 90.4 132.4 93.2 129 96.6C123.6 102.4 119.8 109.5 117.6 117.9C115.6 126.1 114.6 134.3 114.6 142.5V228H94.8V136.5C94.8 130.5 94.5 124.5 93.9 118.5C93.3 112.3 91.9 106.7 89.7 101.7C87.5 96.7 84.2 92.7 79.8 89.7C75.4 86.5 69.4 85 61.8 85.2C54.2 85.2 47.4 87.3 41.4 91.5C35.4 95.7 30.7 101.1 27.3 107.7C24.3 113.5 22.4 119.7 21.6 126.3C20.8 132.9 20.4 139.8 20.4 147V228H0.600006V69.9H19.5L20.1 90.9Z" fill="white" fill-opacity="0.3"/>
<path d="M358.195 205.2C350.595 214.4 341.895 220.8 332.095 224.4C322.495 228 311.895 229.8 300.295 229.8C293.295 229.8 286.495 229 279.895 227.4C273.495 225.6 267.695 222.8 262.495 219C257.295 215.2 253.095 210.4 249.895 204.6C246.895 198.6 245.395 191.9 245.395 184.5C245.395 175.5 247.095 168 250.495 162C253.895 156 258.295 151.2 263.695 147.6C269.295 144 275.695 141.5 282.895 140.1C290.095 138.5 297.595 137.7 305.395 137.7H357.295C357.295 130.5 356.495 123.7 354.895 117.3C353.495 110.9 351.095 105.3 347.695 100.5C344.295 95.7 339.795 91.9 334.195 89.1C328.795 86.3 322.095 84.9 314.095 84.9C310.295 84.9 306.395 85.2 302.395 85.8C298.595 86.4 294.895 87.4 291.295 88.8C287.895 90.2 284.695 92.2 281.695 94.8C278.895 97.2 276.595 100.2 274.795 103.8H253.195C254.995 97.2 257.995 91.7 262.195 87.3C266.395 82.7 271.295 79 276.895 76.2C282.695 73.2 288.795 71.1 295.195 69.9C301.795 68.7 308.295 68.1 314.695 68.1C326.295 68.1 336.095 70 344.095 73.8C352.095 77.6 358.495 82.9 363.295 89.7C368.295 96.3 371.795 104.1 373.795 113.1C375.995 122.1 377.095 131.8 377.095 142.2V228H360.895L358.195 205.2ZM315.595 153.6C310.395 153.6 304.795 153.8 298.795 154.2C292.995 154.6 287.595 155.8 282.595 157.8C277.595 159.6 273.395 162.5 269.995 166.5C266.795 170.3 265.195 175.6 265.195 182.4C265.195 187.8 266.195 192.4 268.195 196.2C270.395 200 273.195 203.2 276.595 205.8C280.195 208.4 284.195 210.3 288.595 211.5C293.195 212.7 297.895 213.3 302.695 213.3C310.495 213.3 317.695 212.3 324.295 210.3C331.095 208.3 336.895 205.3 341.695 201.3C346.695 197.1 350.495 192 353.095 186C355.895 179.8 357.295 172.6 357.295 164.4V153.6H315.595Z" fill="white" fill-opacity="0.3"/>
<path d="M419.838 228V15.9H439.638V140.7H473.538L522.438 69.9H544.338L491.238 145.8L549.438 228H526.638L475.638 157.2H439.638V228H419.838Z" fill="white" fill-opacity="0.3"/>
<path d="M588.026 155.4C588.426 163.8 589.826 171.5 592.226 178.5C594.826 185.5 598.426 191.6 603.026 196.8C607.626 201.8 613.226 205.8 619.826 208.8C626.626 211.6 634.526 213 643.526 213C647.726 213 651.926 212.6 656.126 211.8C660.526 211 664.626 209.8 668.426 208.2C672.426 206.4 676.026 204.1 679.226 201.3C682.426 198.5 684.926 195 686.726 190.8H707.426C705.226 197.8 701.826 203.8 697.226 208.8C692.826 213.8 687.726 217.9 681.926 221.1C676.126 224.1 669.826 226.3 663.026 227.7C656.226 229.1 649.426 229.8 642.626 229.8C630.226 229.8 619.326 227.8 609.926 223.8C600.726 219.8 593.026 214.3 586.826 207.3C580.626 200.1 576.026 191.6 573.026 181.8C570.026 171.8 568.526 160.9 568.526 149.1C568.526 137.1 570.126 126.1 573.326 116.1C576.526 106.1 581.226 97.6 587.426 90.6C593.826 83.4 601.626 77.9 610.826 74.1C620.226 70.1 630.926 68.1 642.926 68.1C655.526 68.1 666.126 70.6 674.726 75.6C683.526 80.6 690.626 87.2 696.026 95.4C701.426 103.4 705.226 112.7 707.426 123.3C709.826 133.7 710.826 144.4 710.426 155.4H588.026ZM690.326 138.9C690.126 131.7 688.926 124.8 686.726 118.2C684.726 111.6 681.626 105.9 677.426 101.1C673.426 96.1 668.326 92.2 662.126 89.4C655.926 86.4 648.726 84.9 640.526 84.9C632.326 84.9 625.026 86.4 618.626 89.4C612.426 92.4 607.126 96.4 602.726 101.4C598.326 106.4 594.926 112.2 592.526 118.8C590.126 125.2 588.726 131.9 588.326 138.9H690.326Z" fill="white" fill-opacity="0.3"/>
<path d="M744.67 289.5V69.9H777.07L778.87 92.4C785.07 84 792.67 77.7 801.67 73.5C810.67 69.3 820.37 67.2 830.77 67.2C841.57 67.2 851.27 69.2 859.87 73.2C868.47 77 875.77 82.4 881.77 89.4C887.97 96.4 892.57 104.9 895.57 114.9C898.77 124.7 900.37 135.9 900.37 148.5C900.37 160.3 898.87 171.2 895.87 181.2C892.87 191.2 888.37 199.9 882.37 207.3C876.57 214.5 869.27 220.1 860.47 224.1C851.87 228.1 841.77 230.1 830.17 230.1C820.17 230.1 810.67 228.6 801.67 225.6C792.87 222.4 785.27 217.5 778.87 210.9V289.5H744.67ZM823.57 200.4C830.97 200.4 837.37 199.1 842.77 196.5C848.17 193.7 852.57 190 855.97 185.4C859.57 180.8 862.17 175.4 863.77 169.2C865.57 163 866.47 156.3 866.47 149.1C866.47 141.9 865.57 135.2 863.77 129C862.17 122.6 859.57 117.1 855.97 112.5C852.57 107.9 848.07 104.3 842.47 101.7C837.07 99.1 830.57 97.8 822.97 97.8C815.57 97.8 809.17 99.2 803.77 102C798.37 104.8 793.77 108.5 789.97 113.1C786.17 117.7 783.27 123.2 781.27 129.6C779.47 135.8 778.57 142.2 778.57 148.8C778.57 163.4 782.37 175.6 789.97 185.4C797.57 195.2 808.77 200.2 823.57 200.4Z" fill="white" fill-opacity="0.3"/>
<path d="M959.784 160.5C960.184 166.3 961.384 171.7 963.384 176.7C965.384 181.7 968.084 186.1 971.484 189.9C975.084 193.5 979.384 196.4 984.384 198.6C989.584 200.8 995.584 201.9 1002.38 201.9C1009.58 201.9 1016.18 200.6 1022.18 198C1028.18 195.4 1032.58 190.9 1035.38 184.5H1070.48C1068.48 192.5 1065.18 199.4 1060.58 205.2C1056.18 211 1050.88 215.8 1044.68 219.6C1038.68 223.2 1031.98 225.9 1024.58 227.7C1017.38 229.3 1009.68 230.1 1001.48 230.1C988.884 230.1 977.784 228.2 968.184 224.4C958.784 220.6 950.884 215.1 944.484 207.9C938.084 200.7 933.284 192.2 930.084 182.4C927.084 172.4 925.584 161.2 925.584 148.8C925.584 136.8 927.284 125.9 930.684 116.1C934.084 106.1 938.984 97.5 945.384 90.3C951.984 83.1 959.884 77.5 969.084 73.5C978.284 69.3 988.784 67.2 1000.58 67.2C1012.98 67.2 1023.68 69.3 1032.68 73.5C1041.68 77.5 1049.18 83 1055.18 90C1061.38 97 1065.98 105.2 1068.98 114.6C1071.98 124 1073.48 134.2 1073.48 145.2C1073.48 150.4 1073.18 155.5 1072.58 160.5H959.784ZM1040.18 134.7C1039.78 122.7 1035.98 113.4 1028.78 106.8C1021.58 100.2 1012.28 96.9 1000.88 96.9C994.484 96.9 988.884 97.9 984.084 99.9C979.284 101.9 975.184 104.6 971.784 108C968.584 111.4 965.984 115.4 963.984 120C961.984 124.6 960.684 129.5 960.084 134.7H1040.18Z" fill="white" fill-opacity="0.3"/>
<path d="M1104.44 228V69.9H1136.54L1138.34 92.4C1150.54 75.6 1167.14 67.2 1188.14 67.2C1190.14 67.2 1192.04 67.3 1193.84 67.5C1195.84 67.5 1197.64 67.6 1199.24 67.8V99.6C1196.84 99.6 1194.44 99.7 1192.04 99.9C1189.84 99.9 1187.64 99.9 1185.44 99.9C1176.64 100.1 1169.24 101.7 1163.24 104.7C1157.44 107.5 1152.64 111.3 1148.84 116.1C1145.24 120.9 1142.64 126.6 1141.04 133.2C1139.44 139.6 1138.64 146.5 1138.64 153.9V228H1104.44Z" fill="white" fill-opacity="0.3"/>
<path d="M1236.03 228V99.6H1210.83V69.9H1236.03V51.3C1236.03 33.7 1240.13 20.8 1248.33 12.6C1256.73 4.2 1270.13 0 1288.53 0H1310.13V29.7H1290.63C1282.23 29.7 1276.63 31.9 1273.83 36.3C1271.03 40.7 1269.63 47 1269.63 55.2V69.9H1310.13V99.6H1269.63V228H1236.03Z" fill="white" fill-opacity="0.3"/>
<path d="M1359.1 160.5C1359.5 166.3 1360.7 171.7 1362.7 176.7C1364.7 181.7 1367.4 186.1 1370.8 189.9C1374.4 193.5 1378.7 196.4 1383.7 198.6C1388.9 200.8 1394.9 201.9 1401.7 201.9C1408.9 201.9 1415.5 200.6 1421.5 198C1427.5 195.4 1431.9 190.9 1434.7 184.5H1469.8C1467.8 192.5 1464.5 199.4 1459.9 205.2C1455.5 211 1450.2 215.8 1444 219.6C1438 223.2 1431.3 225.9 1423.9 227.7C1416.7 229.3 1409 230.1 1400.8 230.1C1388.2 230.1 1377.1 228.2 1367.5 224.4C1358.1 220.6 1350.2 215.1 1343.8 207.9C1337.4 200.7 1332.6 192.2 1329.4 182.4C1326.4 172.4 1324.9 161.2 1324.9 148.8C1324.9 136.8 1326.6 125.9 1330 116.1C1333.4 106.1 1338.3 97.5 1344.7 90.3C1351.3 83.1 1359.2 77.5 1368.4 73.5C1377.6 69.3 1388.1 67.2 1399.9 67.2C1412.3 67.2 1423 69.3 1432 73.5C1441 77.5 1448.5 83 1454.5 90C1460.7 97 1465.3 105.2 1468.3 114.6C1471.3 124 1472.8 134.2 1472.8 145.2C1472.8 150.4 1472.5 155.5 1471.9 160.5H1359.1ZM1439.5 134.7C1439.1 122.7 1435.3 113.4 1428.1 106.8C1420.9 100.2 1411.6 96.9 1400.2 96.9C1393.8 96.9 1388.2 97.9 1383.4 99.9C1378.6 101.9 1374.5 104.6 1371.1 108C1367.9 111.4 1365.3 115.4 1363.3 120C1361.3 124.6 1360 129.5 1359.4 134.7H1439.5Z" fill="white" fill-opacity="0.3"/>
<path d="M1576.28 230.1C1563.48 230.1 1552.38 228.2 1542.98 224.4C1533.58 220.4 1525.68 214.9 1519.28 207.9C1513.08 200.7 1508.38 192.2 1505.18 182.4C1502.18 172.4 1500.68 161.4 1500.68 149.4C1500.68 137.4 1502.28 126.4 1505.48 116.4C1508.88 106.4 1513.88 97.8 1520.48 90.6C1527.08 83.4 1535.08 77.7 1544.48 73.5C1553.88 69.3 1564.78 67.2 1577.18 67.2C1595.38 67.2 1610.48 71.4 1622.48 79.8C1634.48 88 1642.08 101.1 1645.28 119.1H1610.18C1608.38 112.1 1604.48 106.8 1598.48 103.2C1592.48 99.6 1585.18 97.8 1576.58 97.8C1568.98 97.8 1562.48 99.2 1557.08 102C1551.68 104.8 1547.28 108.6 1543.88 113.4C1540.48 118.2 1537.98 123.8 1536.38 130.2C1534.98 136.4 1534.28 142.9 1534.28 149.7C1534.28 156.7 1535.08 163.3 1536.68 169.5C1538.28 175.7 1540.78 181.1 1544.18 185.7C1547.58 190.1 1551.98 193.7 1557.38 196.5C1562.78 199.1 1569.28 200.4 1576.88 200.4C1585.88 200.4 1593.28 198.4 1599.08 194.4C1605.08 190.4 1608.88 185.1 1610.48 178.5H1645.88C1644.28 187.5 1641.28 195.3 1636.88 201.9C1632.68 208.5 1627.48 213.9 1621.28 218.1C1615.08 222.3 1608.18 225.4 1600.58 227.4C1592.98 229.2 1584.88 230.1 1576.28 230.1Z" fill="white" fill-opacity="0.3"/>
<path d="M1722.54 69.9H1762.44V99.6H1722.54V171.9C1722.54 180.9 1724.14 187.6 1727.34 192C1730.54 196.4 1736.64 198.6 1745.64 198.6H1761.24V228H1742.64C1723.24 228 1709.34 224 1700.94 216C1692.74 208 1688.64 194.9 1688.64 176.7V99.6H1663.74V69.9H1688.64V25.2H1722.54V69.9Z" fill="white" fill-opacity="0.3"/>
<path d="M1847.32 9.30001V39L1875.53 29.7L1882.73 51.9L1854.23 61.2L1872.23 85.5L1853.32 99.3L1835.63 75L1818.23 99L1799.03 85.2L1817.93 60.3L1788.82 51.3L1795.73 29.7L1823.93 39V9.30001H1847.32Z" fill="white" fill-opacity="0.3"/>
</svg>
