<svg width="20" height="20" viewBox="0 0 20 20" fill="none" xmlns="http://www.w3.org/2000/svg">
<g clip-path="url(#clip0_113_6)">
<path d="M18.3333 8.33333V10.8333C18.3333 14.1667 16.6666 15.8333 13.3333 15.8333H12.9166C12.6583 15.8333 12.4083 15.9583 12.25 16.1667L11 17.8333C10.45 18.5667 9.54996 18.5667 8.99996 17.8333L7.74996 16.1667C7.61663 15.9833 7.30829 15.8333 7.08329 15.8333H6.66663C3.33329 15.8333 1.66663 15 1.66663 10.8333V6.66667C1.66663 3.33333 3.33329 1.66667 6.66663 1.66667H11.6666" stroke="black" stroke-width="1.5" stroke-miterlimit="10" stroke-linecap="round" stroke-linejoin="round"/>
<path d="M16.25 5.83333C16.8025 5.83333 17.3324 5.61384 17.7231 5.22314C18.1138 4.83244 18.3333 4.30253 18.3333 3.75C18.3333 3.19747 18.1138 2.66756 17.7231 2.27686C17.3324 1.88616 16.8025 1.66667 16.25 1.66667C15.6974 1.66667 15.1675 1.88616 14.7768 2.27686C14.3861 2.66756 14.1666 3.19747 14.1666 3.75C14.1666 4.30253 14.3861 4.83244 14.7768 5.22314C15.1675 5.61384 15.6974 5.83333 16.25 5.83333Z" stroke="black" stroke-width="1.5" stroke-linecap="round" stroke-linejoin="round"/>
<path d="M13.33 9.16667H13.3383M9.99581 9.16667H10.0041M6.66248 9.16667H6.66914" stroke="black" stroke-width="2" stroke-linecap="round" stroke-linejoin="round"/>
</g>
<defs>
<clipPath id="clip0_113_6">
<rect width="20" height="20" fill="white"/>
</clipPath>
</defs>
</svg>
