<svg width="44" height="45" fill="none" xmlns="http://www.w3.org/2000/svg"><rect y=".577" width="43.846" height="43.846" rx="21.923" fill="#976FCC"/><path d="M21.923 12.854c-5.325 0-9.646 4.32-9.646 9.646a9.62 9.62 0 001.857 5.696l-1.228 3.636 3.832-1.195a9.625 9.625 0 005.185 1.51c5.326 0 9.647-4.322 9.647-9.647s-4.321-9.646-9.647-9.646zm4.417 14.82c-1.751.701-3.839.022-6.123-1.712-2.284-1.734-3.787-4.175-3.888-5.987-.101-1.813 1.374-2.727 2.177-2.722.802.006 1.683 2.57 1.695 2.963.01.398-.982 1.106-1.022 1.442-.039.337 1.353 1.998 1.942 2.447.584.443 1.79 1.296 2.413 1.218.617-.085 1.027-1.325 1.42-1.403.392-.079 2.536.987 2.75 1.262.212.28.19 1.875-1.364 2.492z" fill="#fff"/></svg>