<svg xmlns="http://www.w3.org/2000/svg" width="15" height="15"><path fill-rule="evenodd" fill="#FFF" d="M7.633 14.621c-1.218 0-2.422-.3-3.487-.869L.254 14.988a.196.196 0 01-.198-.049.193.193 0 01-.045-.199l1.265-3.732a7.258 7.258 0 01-1.01-3.699c0-4.031 3.305-7.311 7.367-7.311C11.695-.002 15 3.278 15 7.309c0 4.033-3.305 7.312-7.367 7.312zm0-13.1c-3.218 0-5.835 2.596-5.835 5.788 0 1.228.384 2.402 1.111 3.394a.196.196 0 01.027.177l-.63 1.858 1.95-.62a.194.194 0 01.166.023 5.838 5.838 0 003.211.957c3.218 0 5.835-2.597 5.835-5.789 0-3.192-2.618-5.788-5.835-5.788zm2.349 9.281l-.053.005a3.021 3.021 0 01-.301.017c-.285 0-.786-.048-1.845-.471-1.1-.44-2.185-1.381-3.056-2.653a.855.855 0 00-.031-.045c-.227-.299-.757-1.088-.757-1.921 0-.927.444-1.454.707-1.62.247-.156.806-.229.909-.234l.084-.003c.217 0 .373.131.491.414.049.118.511 1.231.537 1.283.031.062.129.254.014.48l-.024.049c-.047.095-.087.177-.178.283l-.088.104a2.731 2.731 0 01-.187.212.368.368 0 00-.064.076c.001 0 .001.014.019.042.122.208 1.012 1.433 2.185 1.942.052.023.221.092.231.092.01 0 .029-.018.042-.033.102-.116.433-.503.542-.665.097-.145.221-.218.368-.218.091 0 .176.028.255.057.194.069 1.288.609 1.317.623.143.068.257.123.322.23.096.159.058.596-.086.997-.183.508-.987.925-1.353.957z"/></svg>